<svg width="869" height="167" viewBox="0 0 869 167" fill="none" xmlns="http://www.w3.org/2000/svg">
<path d="M796.321 165.241V93.9823H812.057V98.9211C815.054 96.7574 818.285 95.1112 821.751 93.9823C825.31 92.8535 829.056 92.2891 832.99 92.2891C837.954 92.2891 842.544 93.2298 846.758 95.1112C850.973 96.8985 854.673 99.4385 857.857 102.731C861.042 105.929 863.524 109.692 865.304 114.019C867.177 118.347 868.16 123.003 868.254 127.989C868.348 130.341 868.394 133.586 868.394 137.725C868.394 141.865 868.348 146.004 868.254 150.143C868.254 154.94 868.254 159.973 868.254 165.241H852.519V129.541C852.519 126.719 851.91 124.132 850.692 121.78C849.568 119.334 848.023 117.218 846.056 115.431C844.183 113.549 841.982 112.091 839.453 111.056C837.018 110.021 834.442 109.504 831.726 109.504C829.103 109.504 826.574 110.021 824.139 111.056C821.797 112.091 819.69 113.549 817.817 115.431C816.037 117.218 814.632 119.334 813.602 121.78C812.572 124.226 812.057 126.86 812.057 129.682V165.241H796.321Z" fill="#1a1a1a"/>
<path d="M713.701 129.644C713.701 124.475 714.633 119.636 716.496 115.125C718.453 110.614 721.062 106.667 724.323 103.284C727.677 99.901 731.543 97.2227 735.922 95.2493C740.394 93.2758 745.146 92.2891 750.177 92.2891C755.208 92.2891 759.913 93.2758 764.292 95.2493C768.765 97.2227 772.631 99.901 775.892 103.284C779.246 106.667 781.855 110.614 783.718 115.125C785.675 119.636 786.653 124.475 786.653 129.644C786.653 131.43 786.514 133.262 786.234 135.142H731.45C732.661 139.37 734.944 142.895 738.298 145.714C741.745 148.439 745.705 149.802 750.177 149.802C752.879 149.802 755.395 149.285 757.724 148.251C760.053 147.217 762.103 145.761 763.873 143.881H783.858C782.461 147.264 780.644 150.366 778.408 153.185C776.172 156.004 773.563 158.447 770.581 160.515C767.693 162.582 764.525 164.18 761.078 165.307C757.631 166.435 753.997 166.999 750.177 166.999C745.146 166.999 740.394 166.012 735.922 164.039C731.543 162.065 727.677 159.387 724.323 156.004C721.062 152.621 718.453 148.674 716.496 144.163C714.633 139.652 713.701 134.813 713.701 129.644ZM733.546 119.354H766.808C765.131 116.347 762.802 113.95 759.82 112.165C756.932 110.379 753.718 109.486 750.177 109.486C746.637 109.486 743.376 110.379 740.394 112.165C737.506 113.95 735.223 116.347 733.546 119.354Z" fill="#55C9BB"/>
<path d="M709.204 59.7676L653.716 149.511H710.185V165.241H624.011L679.358 75.4972H623.17V59.7676H709.204Z" fill="#55C9BB"/>
<path d="M528.243 129.644C528.243 124.475 529.175 119.636 531.038 115.125C532.995 110.614 535.604 106.667 538.865 103.284C542.219 99.901 546.085 97.2227 550.464 95.2493C554.936 93.2758 559.688 92.2891 564.719 92.2891C568.632 92.2891 572.313 92.8529 575.76 93.9806C579.3 95.1083 582.561 96.7529 585.543 98.9143V93.9806H601.195V165.167H585.543V160.233C582.561 162.394 579.3 164.039 575.76 165.167C572.313 166.388 568.632 166.999 564.719 166.999C559.688 166.999 554.936 166.012 550.464 164.039C546.085 162.065 542.219 159.387 538.865 156.004C535.604 152.621 532.995 148.674 531.038 144.163C529.175 139.652 528.243 134.813 528.243 129.644ZM545.293 129.644C545.293 132.463 545.806 135.095 546.831 137.538C547.855 139.981 549.206 142.143 550.883 144.022C552.654 145.808 554.703 147.217 557.033 148.251C559.455 149.285 562.017 149.802 564.719 149.802C567.421 149.802 569.937 149.285 572.266 148.251C574.688 147.217 576.738 145.808 578.415 144.022C580.185 142.143 581.583 139.981 582.608 137.538C583.633 135.095 584.145 132.463 584.145 129.644C584.145 126.825 583.633 124.194 582.608 121.75C581.583 119.307 580.185 117.192 578.415 115.407C576.738 113.527 574.688 112.071 572.266 111.037C569.937 110.003 567.421 109.486 564.719 109.486C562.017 109.486 559.455 110.003 557.033 111.037C554.703 112.071 552.654 113.527 550.883 115.407C549.206 117.192 547.855 119.307 546.831 121.75C545.806 124.194 545.293 126.825 545.293 129.644Z" fill="#1a1a1a"/>
<path d="M396.402 93.9823H412.076V98.9211C415.062 96.7574 418.281 95.1112 421.733 93.9823C425.278 92.8535 429.01 92.2891 432.928 92.2891C438.526 92.2891 443.471 93.4649 447.763 95.8167C452.054 98.1685 455.599 101.414 458.398 105.553C461.757 101.414 465.816 98.1685 470.574 95.8167C475.425 93.4649 480.65 92.2891 486.248 92.2891C491.192 92.2891 495.624 93.2298 499.543 95.1112C503.461 96.8985 506.82 99.4385 509.619 102.731C512.418 105.929 514.563 109.692 516.056 114.019C517.549 118.347 518.342 123.003 518.435 127.989C518.529 130.341 518.575 133.586 518.575 137.725C518.575 141.865 518.575 146.004 518.575 150.143C518.575 154.94 518.575 159.973 518.575 165.241H502.901V129.541C502.901 126.719 502.435 124.132 501.502 121.78C500.662 119.334 499.449 117.218 497.863 115.431C496.277 113.549 494.411 112.091 492.265 111.056C490.119 110.021 487.694 109.504 484.988 109.504C482.376 109.504 479.857 110.068 477.431 111.197C475.005 112.232 472.906 113.69 471.133 115.572C469.361 117.453 467.915 119.617 466.795 122.063C465.769 124.508 465.256 127.142 465.256 129.965C465.349 132.693 465.396 136.032 465.396 139.983C465.396 143.934 465.349 147.791 465.256 151.554C465.256 155.975 465.256 160.538 465.256 165.241H449.582V129.541C449.582 126.719 449.115 124.132 448.182 121.78C447.343 119.334 446.13 117.218 444.544 115.431C442.958 113.549 441.092 112.091 438.946 111.056C436.8 110.021 434.374 109.504 431.669 109.504C428.963 109.504 426.397 110.021 423.972 111.056C421.639 112.091 419.587 113.549 417.814 115.431C416.041 117.218 414.642 119.334 413.616 121.78C412.589 124.226 412.076 126.86 412.076 129.682V165.241H396.402V93.9823Z" fill="#1a1a1a"/>
<path d="M347.182 165.241V93.9823H362.743V98.9211C365.707 96.7574 368.902 95.1112 372.33 93.9823C375.849 92.8535 379.554 92.2891 383.445 92.2891C384.186 92.2891 384.88 92.2891 385.529 92.2891C386.177 92.2891 386.872 92.3831 387.613 92.5713L383.167 109.504H382.194C379.508 109.504 376.961 110.021 374.553 111.056C372.237 112.091 370.199 113.549 368.439 115.431C366.679 117.218 365.29 119.334 364.271 121.78C363.252 124.226 362.743 126.86 362.743 129.682V165.241H347.182Z" fill="#1a1a1a"/>
<path d="M260.167 129.644C260.167 124.475 261.099 119.636 262.962 115.125C264.919 110.614 267.527 106.667 270.788 103.284C274.142 99.901 278.009 97.2227 282.388 95.2493C286.86 93.2758 291.612 92.2891 296.643 92.2891C300.556 92.2891 304.236 92.8529 307.684 93.9806C311.224 95.1083 314.485 96.7529 317.467 98.9143V93.9806H333.119V165.167H317.467V160.233C314.485 162.394 311.224 164.039 307.684 165.167C304.236 166.388 300.556 166.999 296.643 166.999C291.612 166.999 286.86 166.012 282.388 164.039C278.009 162.065 274.142 159.387 270.788 156.004C267.527 152.621 264.919 148.674 262.962 144.163C261.099 139.652 260.167 134.813 260.167 129.644ZM277.217 129.644C277.217 132.463 277.73 135.095 278.754 137.538C279.779 139.981 281.13 142.143 282.807 144.022C284.578 145.808 286.627 147.217 288.957 148.251C291.379 149.285 293.941 149.802 296.643 149.802C299.345 149.802 301.861 149.285 304.19 148.251C306.612 147.217 308.662 145.808 310.339 144.022C312.109 142.143 313.507 139.981 314.532 137.538C315.557 135.095 316.069 132.463 316.069 129.644C316.069 126.825 315.557 124.194 314.532 121.75C313.507 119.307 312.109 117.192 310.339 115.407C308.662 113.527 306.612 112.071 304.19 111.037C301.861 110.003 299.345 109.486 296.643 109.486C293.941 109.486 291.379 110.003 288.957 111.037C286.627 112.071 284.578 113.527 282.807 115.407C281.13 117.192 279.779 119.307 278.754 121.75C277.73 124.194 277.217 126.825 277.217 129.644Z" fill="#1a1a1a"/>
<path d="M179.304 165.241V59.7676H194.847V99.0559C197.808 96.8967 201 95.2538 204.423 94.1273C207.939 93.0007 211.639 92.4374 215.525 92.4374C220.429 92.4374 224.962 93.3762 229.126 95.2538C233.289 97.0375 236.944 99.5722 240.089 102.858C243.235 106.05 245.687 109.805 247.445 114.123C249.295 118.442 250.267 123.089 250.359 128.064C250.452 130.411 250.498 133.65 250.498 137.781C250.498 141.912 250.452 146.042 250.359 150.173C250.359 154.961 250.359 159.983 250.359 165.241H234.816V129.613C234.816 126.797 234.214 124.215 233.012 121.868C231.901 119.428 230.375 117.315 228.432 115.532C226.582 113.654 224.407 112.199 221.909 111.166C219.504 110.134 216.959 109.617 214.276 109.617C211.686 109.617 209.188 110.134 206.782 111.166C204.469 112.199 202.387 113.654 200.537 115.532C198.779 117.315 197.391 119.428 196.374 121.868C195.356 124.309 194.847 126.938 194.847 129.754V165.241H179.304Z" fill="#1a1a1a"/>
<path d="M83.0895 0C87.0062 -1.70283e-07 90.8306 0.558152 94.5608 1.67119C98.2907 2.69142 101.648 4.35942 104.632 6.67795C107.523 8.99676 109.901 11.9668 111.766 15.5841C113.538 19.2013 114.423 23.6071 114.423 28.8008V35.7572H114.437V49.9725H99.1781V29.6364C99.178 27.8741 98.7104 26.2495 97.7779 24.7655C96.7521 23.1887 95.4928 21.8432 94.0008 20.7302C92.4159 19.5249 90.6913 18.5974 88.8269 17.9483C86.8685 17.299 84.9546 16.9734 83.0895 16.9734C81.3183 16.9735 79.6405 17.2993 78.0556 17.9483C76.4706 18.5047 75.0706 19.3389 73.8585 20.4516C72.6464 21.5645 71.6675 22.864 70.9215 24.3477C70.1755 25.7389 69.7546 27.2705 69.6613 28.94V53.1484H69.6716V67.3637H52.456V67.3501H29.7968C28.0249 67.3501 26.3916 67.8152 24.8995 68.7428C23.3142 69.763 21.9614 71.0155 20.8424 72.4995C19.6305 74.0758 18.6981 75.7912 18.0454 77.6456C17.3926 79.5934 17.0653 81.497 17.0653 83.3521C17.0654 85.1137 17.393 86.7825 18.0454 88.3588C18.6048 89.9353 19.4436 91.3277 20.5623 92.5334C21.6812 93.739 22.9877 94.7126 24.4795 95.4546C25.8783 96.1966 27.4181 96.6152 29.0967 96.7079H53.4361V96.6978H67.7147V136.484C67.7147 138.246 68.1823 139.87 69.1149 141.354C70.1407 142.931 71.3999 144.277 72.892 145.39C74.4768 146.595 76.2015 147.522 78.0659 148.172C80.0242 148.821 81.9382 149.146 83.8033 149.146C85.5745 149.146 87.2523 148.821 88.8371 148.172C90.4222 147.615 91.8221 146.781 93.0343 145.668C93.5382 145.206 93.9975 144.707 94.4208 144.18V164.153C91.0735 165.458 87.5365 166.12 83.8033 166.12C79.8866 166.12 76.0621 165.562 72.3319 164.449C68.6021 163.428 65.2447 161.76 62.2608 159.442C59.3699 157.123 56.9917 154.153 55.1266 150.536C53.3551 146.919 52.4697 142.513 52.4697 137.319V113.821H28.9567C24.9468 113.728 21.2158 112.847 17.7654 111.178C14.2221 109.509 11.1453 107.282 8.53435 104.5C5.9232 101.81 3.86899 98.6076 2.37691 94.8975C0.792211 91.2809 0.000106852 87.4322 0 83.3521C-3.4241e-07 79.4564 0.561174 75.6526 1.68023 71.9425C2.70599 68.2327 4.38302 64.8934 6.7141 61.9256C9.04548 59.0502 12.0316 56.6849 15.6685 54.8298C19.3053 53.0678 23.7348 52.1872 28.9567 52.1872H52.456V28.8008C52.5493 24.8125 53.4344 21.1015 55.113 17.6697C56.7913 14.1456 59.0299 11.0852 61.8271 8.4884C64.5315 5.89131 67.7514 3.84816 71.4816 2.36412C75.1177 0.787946 78.9873 0.000106099 83.0895 0Z" fill="#1a1a1a"/>
<path d="M83.0895 0C87.0062 -1.70283e-07 90.8306 0.558152 94.5608 1.67119C98.2907 2.69142 101.648 4.35942 104.632 6.67795C107.523 8.99676 109.901 11.9668 111.766 15.5841C113.538 19.2013 114.423 23.6071 114.423 28.8008V35.7572H114.437V49.9725H99.1781V29.6364C99.178 27.8741 98.7104 26.2495 97.7779 24.7655C96.7521 23.1887 95.4928 21.8432 94.0008 20.7302C92.4159 19.5249 90.6913 18.5974 88.8269 17.9483C86.8685 17.299 84.9546 16.9734 83.0895 16.9734C81.3183 16.9735 79.6405 17.2993 78.0556 17.9483C76.4706 18.5047 75.0706 19.3389 73.8585 20.4516C72.6464 21.5645 71.6675 22.864 70.9215 24.3477C70.1755 25.7389 69.7546 27.2705 69.6613 28.94V53.1484H69.6716V67.3637H52.456V67.3501H29.7968C28.0249 67.3501 26.3916 67.8152 24.8995 68.7428C23.3142 69.763 21.9614 71.0155 20.8424 72.4995C19.6305 74.0758 18.6981 75.7912 18.0454 77.6456C17.3926 79.5934 17.0653 81.497 17.0653 83.3521C17.0654 85.1137 17.393 86.7825 18.0454 88.3588C18.6048 89.9353 19.4436 91.3277 20.5623 92.5334C21.6812 93.739 22.9877 94.7126 24.4795 95.4546C25.8783 96.1966 27.4181 96.6152 29.0967 96.7079H53.4361V96.6978H67.7147V136.484C67.7147 138.246 68.1823 139.87 69.1149 141.354C70.1407 142.931 71.3999 144.277 72.892 145.39C74.4768 146.595 76.2015 147.522 78.0659 148.172C80.0242 148.821 81.9382 149.146 83.8033 149.146C85.5745 149.146 87.2523 148.821 88.8371 148.172C90.4222 147.615 91.8221 146.781 93.0343 145.668C93.5382 145.206 93.9975 144.707 94.4208 144.18V164.153C91.0735 165.458 87.5365 166.12 83.8033 166.12C79.8866 166.12 76.0621 165.562 72.3319 164.449C68.6021 163.428 65.2447 161.76 62.2608 159.442C59.3699 157.123 56.9917 154.153 55.1266 150.536C53.3551 146.919 52.4697 142.513 52.4697 137.319V113.821H28.9567C24.9468 113.728 21.2158 112.847 17.7654 111.178C14.2221 109.509 11.1453 107.282 8.53435 104.5C5.9232 101.81 3.86899 98.6076 2.37691 94.8975C0.792211 91.2809 0.000106852 87.4322 0 83.3521C-3.4241e-07 79.4564 0.561174 75.6526 1.68023 71.9425C2.70599 68.2327 4.38302 64.8934 6.7141 61.9256C9.04548 59.0502 12.0316 56.6849 15.6685 54.8298C19.3053 53.0678 23.7348 52.1872 28.9567 52.1872H52.456V28.8008C52.5493 24.8125 53.4344 21.1015 55.113 17.6697C56.7913 14.1456 59.0299 11.0852 61.8271 8.4884C64.5315 5.89131 67.7514 3.84816 71.4816 2.36412C75.1177 0.787946 78.9873 0.000106099 83.0895 0Z" fill="#1a1a1a"/>
<path d="M83.0895 0C87.0062 -1.70283e-07 90.8306 0.558152 94.5608 1.67119C98.2907 2.69142 101.648 4.35942 104.632 6.67795C107.523 8.99676 109.901 11.9668 111.766 15.5841C113.538 19.2013 114.423 23.6071 114.423 28.8008V35.7572H114.437V49.9725H99.1781V29.6364C99.178 27.8741 98.7104 26.2495 97.7779 24.7655C96.7521 23.1887 95.4928 21.8432 94.0008 20.7302C92.4159 19.5249 90.6913 18.5974 88.8269 17.9483C86.8685 17.299 84.9546 16.9734 83.0895 16.9734C81.3183 16.9735 79.6405 17.2993 78.0556 17.9483C76.4706 18.5047 75.0706 19.3389 73.8585 20.4516C72.6464 21.5645 71.6675 22.864 70.9215 24.3477C70.1755 25.7389 69.7546 27.2705 69.6613 28.94V53.1484H69.6716V67.3637H52.456V67.3501H29.7968C28.0249 67.3501 26.3916 67.8152 24.8995 68.7428C23.3142 69.763 21.9614 71.0155 20.8424 72.4995C19.6305 74.0758 18.6981 75.7912 18.0454 77.6456C17.3926 79.5934 17.0653 81.497 17.0653 83.3521C17.0654 85.1137 17.393 86.7825 18.0454 88.3588C18.6048 89.9353 19.4436 91.3277 20.5623 92.5334C21.6812 93.739 22.9877 94.7126 24.4795 95.4546C25.8783 96.1966 27.4181 96.6152 29.0967 96.7079H53.4361V96.6978H67.7147V136.484C67.7147 138.246 68.1823 139.87 69.1149 141.354C70.1407 142.931 71.3999 144.277 72.892 145.39C74.4768 146.595 76.2015 147.522 78.0659 148.172C80.0242 148.821 81.9382 149.146 83.8033 149.146C85.5745 149.146 87.2523 148.821 88.8371 148.172C90.4222 147.615 91.8221 146.781 93.0343 145.668C93.5382 145.206 93.9975 144.707 94.4208 144.18V164.153C91.0735 165.458 87.5365 166.12 83.8033 166.12C79.8866 166.12 76.0621 165.562 72.3319 164.449C68.6021 163.428 65.2447 161.76 62.2608 159.442C59.3699 157.123 56.9917 154.153 55.1266 150.536C53.3551 146.919 52.4697 142.513 52.4697 137.319V113.821H28.9567C24.9468 113.728 21.2158 112.847 17.7654 111.178C14.2221 109.509 11.1453 107.282 8.53435 104.5C5.9232 101.81 3.86899 98.6076 2.37691 94.8975C0.792211 91.2809 0.000106852 87.4322 0 83.3521C-3.4241e-07 79.4564 0.561174 75.6526 1.68023 71.9425C2.70599 68.2327 4.38302 64.8934 6.7141 61.9256C9.04548 59.0502 12.0316 56.6849 15.6685 54.8298C19.3053 53.0678 23.7348 52.1872 28.9567 52.1872H52.456V28.8008C52.5493 24.8125 53.4344 21.1015 55.113 17.6697C56.7913 14.1456 59.0299 11.0852 61.8271 8.4884C64.5315 5.89131 67.7514 3.84816 71.4816 2.36412C75.1177 0.787946 78.9873 0.000106099 83.0895 0Z" fill="#1a1a1a"/>
<path d="M135.405 52.1736C139.415 52.2663 143.146 53.1467 146.597 54.8162C150.14 56.4856 153.217 58.7121 155.828 61.4942C158.439 64.184 160.493 67.3866 161.985 71.0967C163.57 74.7133 164.362 78.562 164.362 82.6421C164.362 86.5378 163.801 90.3416 162.682 94.0517C161.656 97.7614 159.979 101.101 157.648 104.069C155.317 106.944 152.33 109.309 148.693 111.164C145.057 112.926 140.627 113.807 135.405 113.807H110.926V113.821L97.2214 113.831V98.6543L134.565 98.6441C136.337 98.6441 137.97 98.1789 139.462 97.2514C141.048 96.2311 142.401 94.9787 143.52 93.4947C144.731 91.9184 145.664 90.203 146.317 88.3486C146.969 86.4008 147.297 84.4972 147.297 82.6421C147.297 80.8805 146.969 79.2117 146.317 77.6354C145.757 76.0589 144.918 74.6665 143.8 73.4608C142.681 72.2552 141.374 71.2816 139.883 70.5396C138.484 69.7976 136.944 69.379 135.265 69.2862H110.926V69.2964H97.2214V52.1736H135.405Z" fill="#55C9BB"/>
<path d="M97.2315 112.971V163.477H114.437V98.6543H97.2214L97.2212 112.971H97.2315Z" fill="#55C9BB"/>
</svg>